<svg width="256" height="256" viewBox="0 0 128 128" fill="none" xmlns="http://www.w3.org/2000/svg">
  <rect width="128" height="128" rx="34" fill="#070707"/>
  <rect x="1" y="1" width="126" height="126" rx="33" stroke="white" stroke-opacity="0.12"/>
  <circle cx="38" cy="27" r="56" fill="#a78bfa" fill-opacity="0.28"/>
  <circle cx="98" cy="98" r="54" fill="#4c1d95" fill-opacity="0.44"/>
  <path d="M 31 88 C 35 67 48 58 64 58 C 80 58 93 67 97 88 Z M 64 21 C 78 21 88 32 88 45 C 88 58 78 68 64 68 C 50 68 40 58 40 45 C 40 32 50 21 64 21 Z" fill="url(#maestrog)"/>
  <path d="M24 100 H104" stroke="white" stroke-opacity="0.12"/>
  <text x="64" y="111" text-anchor="middle" fill="white" fill-opacity="0.72" font-family="Inter, Arial, sans-serif" font-size="10" font-weight="700" letter-spacing="1.2">MAESTRO</text>
  <defs><linearGradient id="maestrog" x1="36" y1="18" x2="96" y2="92" gradientUnits="userSpaceOnUse"><stop stop-color="#fff" stop-opacity="0.92"/><stop offset="1" stop-color="#a78bfa" stop-opacity="0.72"/></linearGradient></defs>
</svg>