<svg width="256" height="256" viewBox="0 0 128 128" fill="none" xmlns="http://www.w3.org/2000/svg">
  <rect width="128" height="128" rx="34" fill="#070707"/>
  <rect x="1" y="1" width="126" height="126" rx="33" stroke="white" stroke-opacity="0.12"/>
  <circle cx="38" cy="27" r="56" fill="#22c55e" fill-opacity="0.28"/>
  <circle cx="98" cy="98" r="54" fill="#14532d" fill-opacity="0.44"/>
  <path d="M 31 89 C 35 68 48 58 64 58 C 80 58 93 68 97 89 Z M 64 23 C 77 23 86 33 86 46 C 86 58 77 68 64 68 C 51 68 42 58 42 46 C 42 33 51 23 64 23 Z" fill="url(#scoutg)"/>
  <path d="M24 100 H104" stroke="white" stroke-opacity="0.12"/>
  <text x="64" y="111" text-anchor="middle" fill="white" fill-opacity="0.72" font-family="Inter, Arial, sans-serif" font-size="10" font-weight="700" letter-spacing="1.2">SCOUT</text>
  <defs><linearGradient id="scoutg" x1="36" y1="18" x2="96" y2="92" gradientUnits="userSpaceOnUse"><stop stop-color="#fff" stop-opacity="0.92"/><stop offset="1" stop-color="#22c55e" stop-opacity="0.72"/></linearGradient></defs>
</svg>